<mxfile host="app.diagrams.net" agent="Mozilla/5.0 (Windows NT 10.0; Win64; x64) AppleWebKit/537.36 (KHTML, like Gecko) Chrome/131.0.0.0 Safari/537.36" version="24.8.7">
  <diagram name="Page-1" id="-FiyF4BfpEK4GpRFa6xk">
    <mxGraphModel dx="1238" dy="638" grid="1" gridSize="10" guides="1" tooltips="1" connect="1" arrows="1" fold="1" page="1" pageScale="1" pageWidth="1654" pageHeight="1169" math="0" shadow="0">
      <root>
        <mxCell id="0" />
        <mxCell id="1" parent="0" />
        <mxCell id="WQAjMAXXMwpUOWAKvel7-127" value="&lt;b&gt;Student&lt;/b&gt;" style="html=1;dashed=0;whiteSpace=wrap;" vertex="1" parent="1">
          <mxGeometry x="280" y="290" width="150" height="70" as="geometry" />
        </mxCell>
        <mxCell id="WQAjMAXXMwpUOWAKvel7-128" value="&lt;b&gt;1&lt;/b&gt;&lt;div&gt;&lt;b&gt;Student&amp;nbsp;&lt;/b&gt;&lt;/div&gt;&lt;div&gt;&lt;b&gt;Register&lt;/b&gt;&lt;/div&gt;" style="shape=ellipse;html=1;dashed=0;whiteSpace=wrap;aspect=fixed;perimeter=ellipsePerimeter;" vertex="1" parent="1">
          <mxGeometry x="490" y="400" width="100" height="100" as="geometry" />
        </mxCell>
        <mxCell id="WQAjMAXXMwpUOWAKvel7-129" value="&lt;b&gt;2&lt;/b&gt;&lt;div&gt;&lt;b&gt;Course&lt;/b&gt;&lt;/div&gt;&lt;div&gt;&lt;b&gt;manage&lt;/b&gt;&lt;/div&gt;" style="shape=ellipse;html=1;dashed=0;whiteSpace=wrap;aspect=fixed;perimeter=ellipsePerimeter;" vertex="1" parent="1">
          <mxGeometry x="680" y="400" width="100" height="100" as="geometry" />
        </mxCell>
        <mxCell id="WQAjMAXXMwpUOWAKvel7-130" value="&lt;b&gt;5&lt;/b&gt;&lt;div&gt;&lt;b&gt;Marks&lt;/b&gt;&lt;/div&gt;&lt;div&gt;&lt;b&gt;Gener&lt;/b&gt;&lt;span style=&quot;color: rgba(0, 0, 0, 0); font-family: monospace; font-size: 0px; text-align: start; text-wrap-mode: nowrap; background-color: initial;&quot;&gt;%3CmxGraphModel%3E%3Croot%3E%3CmxCell%20id%3D%220%22%2F%3E%3CmxCell%20id%3D%221%22%20parent%3D%220%22%2F%3E%3CmxCell%20id%3D%222%22%20value%3D%22%26lt%3Bb%26gt%3B1%26lt%3B%2Fb%26gt%3B%26lt%3Bdiv%26gt%3B%26lt%3Bb%26gt%3BStudent%26amp%3Bnbsp%3B%26lt%3B%2Fb%26gt%3B%26lt%3B%2Fdiv%26gt%3B%26lt%3Bdiv%26gt%3B%26lt%3Bb%26gt%3BRegister%26lt%3B%2Fb%26gt%3B%26lt%3B%2Fdiv%26gt%3B%22%20style%3D%22shape%3Dellipse%3Bhtml%3D1%3Bdashed%3D0%3BwhiteSpace%3Dwrap%3Baspect%3Dfixed%3Bperimeter%3DellipsePerimeter%3B%22%20vertex%3D%221%22%20parent%3D%221%22%3E%3CmxGeometry%20x%3D%22680%22%20y%3D%22400%22%20width%3D%2270%22%20height%3D%2270%22%20as%3D%22geometry%22%2F%3E%3C%2FmxCell%3E%3C%2Froot%3E%3C%2FmxGraphModel%3E&lt;/span&gt;&lt;b style=&quot;background-color: initial;&quot;&gt;ate&lt;/b&gt;&lt;/div&gt;" style="shape=ellipse;html=1;dashed=0;whiteSpace=wrap;aspect=fixed;perimeter=ellipsePerimeter;" vertex="1" parent="1">
          <mxGeometry x="850" y="320" width="100" height="100" as="geometry" />
        </mxCell>
        <mxCell id="WQAjMAXXMwpUOWAKvel7-131" value="&lt;b&gt;5&lt;/b&gt;&lt;div&gt;&lt;b&gt;Marks&lt;/b&gt;&lt;/div&gt;&lt;div&gt;&lt;b&gt;Gener&lt;/b&gt;&lt;span style=&quot;color: rgba(0, 0, 0, 0); font-family: monospace; font-size: 0px; text-align: start; text-wrap-mode: nowrap; background-color: initial;&quot;&gt;%3CmxGraphModel%3E%3Croot%3E%3CmxCell%20id%3D%220%22%2F%3E%3CmxCell%20id%3D%221%22%20parent%3D%220%22%2F%3E%3CmxCell%20id%3D%222%22%20value%3D%22%26lt%3Bb%26gt%3B1%26lt%3B%2Fb%26gt%3B%26lt%3Bdiv%26gt%3B%26lt%3Bb%26gt%3BStudent%26amp%3Bnbsp%3B%26lt%3B%2Fb%26gt%3B%26lt%3B%2Fdiv%26gt%3B%26lt%3Bdiv%26gt%3B%26lt%3Bb%26gt%3BRegister%26lt%3B%2Fb%26gt%3B%26lt%3B%2Fdiv%26gt%3B%22%20style%3D%22shape%3Dellipse%3Bhtml%3D1%3Bdashed%3D0%3BwhiteSpace%3Dwrap%3Baspect%3Dfixed%3Bperimeter%3DellipsePerimeter%3B%22%20vertex%3D%221%22%20parent%3D%221%22%3E%3CmxGeometry%20x%3D%22680%22%20y%3D%22400%22%20width%3D%2270%22%20height%3D%2270%22%20as%3D%22geometry%22%2F%3E%3C%2FmxCell%3E%3C%2Froot%3E%3C%2FmxGraphModel%3E&lt;/span&gt;&lt;b style=&quot;background-color: initial;&quot;&gt;ate&lt;/b&gt;&lt;/div&gt;" style="shape=ellipse;html=1;dashed=0;whiteSpace=wrap;aspect=fixed;perimeter=ellipsePerimeter;" vertex="1" parent="1">
          <mxGeometry x="870" y="570" width="100" height="100" as="geometry" />
        </mxCell>
        <mxCell id="WQAjMAXXMwpUOWAKvel7-132" value="&lt;b&gt;4&lt;/b&gt;&lt;div&gt;&lt;b&gt;Teacher&lt;br&gt;&lt;br&gt;&lt;/b&gt;&lt;/div&gt;" style="shape=ellipse;html=1;dashed=0;whiteSpace=wrap;aspect=fixed;perimeter=ellipsePerimeter;" vertex="1" parent="1">
          <mxGeometry x="1090" y="400" width="100" height="100" as="geometry" />
        </mxCell>
      </root>
    </mxGraphModel>
  </diagram>
</mxfile>
